<?xml version="1.0" encoding="iso-8859-1"?>
<!-- Generator: Adobe Illustrator 19.0.0, SVG Export Plug-In . SVG Version: 6.00 Build 0)  -->
<svg version="1.1" id="Layer_1" xmlns="http://www.w3.org/2000/svg" xmlns:xlink="http://www.w3.org/1999/xlink" x="0px" y="0px"
	 viewBox="0 0 495 495" style="enable-background:new 0 0 495 495;" xml:space="preserve">
<g>
	<path style="fill:#FFB655;" d="M370.383,87.41c5.46-12.447,9.785-25.723,12.772-40H247.28v40H370.383z"/>
	<path style="fill:#FFB655;" d="M247.28,406.08v40h135.561c-3.098-14.283-7.548-27.553-13.13-40H247.28z"/>
	<path style="fill:#FFB655;" d="M247.28,177.83h54.065c13.849-12.619,26.723-25.799,38.088-40H247.28V177.83z"/>
	<path style="fill:#FFB655;" d="M247.28,357.16h92.144c-11.366-14.202-24.241-27.381-38.091-40H247.28V357.16z"/>
	<path style="fill:#FFC477;" d="M125.289,406.08c-5.582,12.447-10.032,25.717-13.13,40H247.28v-40H125.289z"/>
	<path style="fill:#FFC477;" d="M247.28,317.16h-53.614c-13.85,12.619-26.725,25.798-38.091,40h91.704V317.16z"/>
	<path style="fill:#FFC477;" d="M247.28,137.83h-91.712c11.365,14.201,24.239,27.381,38.088,40h53.625V137.83z"/>
	<path style="fill:#FFC477;" d="M247.28,87.41v-40H111.845c2.987,14.277,7.312,27.553,12.772,40H247.28z"/>
	<path style="fill:#FFDAAA;" d="M280.138,247.5c-6.809,5.331-13.634,10.599-20.42,15.834c-4.088,3.154-8.163,6.299-12.217,9.443
		c18.732,14.527,36.999,29.043,53.834,44.382c13.85,12.619,26.725,25.798,38.091,40c11.992,14.983,22.299,31.108,30.287,48.92
		c5.582,12.447,10.032,25.717,13.13,40c3.276,15.104,5.048,31.334,5.048,48.92h40c0-60.131-17.772-112.216-54.333-159.23
		C347.234,301.923,313.88,273.916,280.138,247.5z"/>
	<path style="fill:#FFDAAA;" d="M247.5,222.222c-18.736-14.531-37.007-29.05-53.845-44.392c-13.849-12.619-26.723-25.799-38.088-40
		c-12.327-15.404-22.875-32.011-30.951-50.42c-5.46-12.447-9.785-25.723-12.772-40c-3.071-14.676-4.734-30.407-4.734-47.41h-40
		c0,60.131,17.772,112.216,54.333,159.23c26.321,33.847,59.675,61.854,93.418,88.27c6.809-5.331,13.634-10.599,20.42-15.834
		C239.371,228.511,243.445,225.366,247.5,222.222z"/>
	<path style="fill:#FFBCAB;" d="M155.576,357.16c11.366-14.202,24.241-27.381,38.091-40c16.834-15.339,35.102-29.855,53.834-44.382
		c4.055-3.144,8.129-6.289,12.217-9.443c6.786-5.236,13.611-10.503,20.42-15.834c33.742-26.416,67.097-54.423,93.418-88.27
		c36.561-47.015,54.333-99.1,54.333-159.23h-40c0,17.003-1.663,32.734-4.734,47.41c-2.987,14.277-7.312,27.553-12.772,40
		c-8.076,18.409-18.624,35.016-30.951,50.42c-11.365,14.201-24.239,27.381-38.088,40c-16.837,15.342-35.109,29.861-53.845,44.392
		c-4.055,3.144-8.129,6.289-12.217,9.443c-6.786,5.236-13.611,10.503-20.42,15.834c-33.742,26.416-67.097,54.423-93.418,88.27
		c-36.561,47.015-54.333,99.1-54.333,159.23h40c0-17.586,1.771-33.816,5.048-48.92c3.098-14.283,7.548-27.553,13.13-40
		C133.276,388.268,143.584,372.144,155.576,357.16z"/>
</g>
<g>
</g>
<g>
</g>
<g>
</g>
<g>
</g>
<g>
</g>
<g>
</g>
<g>
</g>
<g>
</g>
<g>
</g>
<g>
</g>
<g>
</g>
<g>
</g>
<g>
</g>
<g>
</g>
<g>
</g>
</svg>
